<mxfile host="app.diagrams.net" agent="Mozilla/5.0 (Macintosh; Intel Mac OS X 10_15_7) AppleWebKit/605.1.15 (KHTML, like Gecko) Version/18.3.1 Safari/605.1.15" version="26.1.3">
  <diagram name="Page-1" id="RUZ1tWq9v9w9GtO3ps8G">
    <mxGraphModel dx="2057" dy="814" grid="1" gridSize="10" guides="1" tooltips="1" connect="1" arrows="1" fold="1" page="1" pageScale="1" pageWidth="850" pageHeight="1100" math="0" shadow="0">
      <root>
        <mxCell id="0" />
        <mxCell id="1" parent="0" />
        <mxCell id="EYCppehSCP_pvKJQpNDg-35" style="edgeStyle=orthogonalEdgeStyle;rounded=0;orthogonalLoop=1;jettySize=auto;html=1;entryX=0;entryY=0.5;entryDx=0;entryDy=0;" edge="1" parent="1" source="EYCppehSCP_pvKJQpNDg-7" target="EYCppehSCP_pvKJQpNDg-28">
          <mxGeometry relative="1" as="geometry" />
        </mxCell>
        <mxCell id="EYCppehSCP_pvKJQpNDg-7" value="Start Swap" style="ellipse;whiteSpace=wrap;html=1;" vertex="1" parent="1">
          <mxGeometry x="-90" y="470" width="130" height="80" as="geometry" />
        </mxCell>
        <mxCell id="EYCppehSCP_pvKJQpNDg-30" style="edgeStyle=orthogonalEdgeStyle;rounded=0;orthogonalLoop=1;jettySize=auto;html=1;exitX=0.5;exitY=0;exitDx=0;exitDy=0;entryX=0;entryY=0.25;entryDx=0;entryDy=0;" edge="1" parent="1" source="EYCppehSCP_pvKJQpNDg-14" target="EYCppehSCP_pvKJQpNDg-24">
          <mxGeometry relative="1" as="geometry">
            <mxPoint x="340" y="335" as="targetPoint" />
          </mxGeometry>
        </mxCell>
        <mxCell id="EYCppehSCP_pvKJQpNDg-36" value="True" style="edgeLabel;html=1;align=center;verticalAlign=middle;resizable=0;points=[];" vertex="1" connectable="0" parent="EYCppehSCP_pvKJQpNDg-30">
          <mxGeometry x="-0.4069" y="1" relative="1" as="geometry">
            <mxPoint as="offset" />
          </mxGeometry>
        </mxCell>
        <mxCell id="EYCppehSCP_pvKJQpNDg-32" style="edgeStyle=orthogonalEdgeStyle;rounded=0;orthogonalLoop=1;jettySize=auto;html=1;entryX=0;entryY=0.5;entryDx=0;entryDy=0;" edge="1" parent="1" source="EYCppehSCP_pvKJQpNDg-14" target="EYCppehSCP_pvKJQpNDg-25">
          <mxGeometry relative="1" as="geometry" />
        </mxCell>
        <mxCell id="EYCppehSCP_pvKJQpNDg-37" value="False" style="edgeLabel;html=1;align=center;verticalAlign=middle;resizable=0;points=[];" vertex="1" connectable="0" parent="EYCppehSCP_pvKJQpNDg-32">
          <mxGeometry y="2" relative="1" as="geometry">
            <mxPoint as="offset" />
          </mxGeometry>
        </mxCell>
        <mxCell id="EYCppehSCP_pvKJQpNDg-63" style="edgeStyle=orthogonalEdgeStyle;rounded=0;orthogonalLoop=1;jettySize=auto;html=1;entryX=0.5;entryY=0;entryDx=0;entryDy=0;" edge="1" parent="1" source="EYCppehSCP_pvKJQpNDg-14" target="EYCppehSCP_pvKJQpNDg-58">
          <mxGeometry relative="1" as="geometry" />
        </mxCell>
        <mxCell id="EYCppehSCP_pvKJQpNDg-14" value="&lt;font style=&quot;font-size: 11px;&quot;&gt;Did Swapper deposit tokens?&lt;/font&gt;" style="rhombus;whiteSpace=wrap;html=1;" vertex="1" parent="1">
          <mxGeometry x="260" y="435" width="130" height="150" as="geometry" />
        </mxCell>
        <mxCell id="EYCppehSCP_pvKJQpNDg-33" style="edgeStyle=orthogonalEdgeStyle;rounded=0;orthogonalLoop=1;jettySize=auto;html=1;entryX=0.5;entryY=0;entryDx=0;entryDy=0;" edge="1" parent="1" source="EYCppehSCP_pvKJQpNDg-24" target="EYCppehSCP_pvKJQpNDg-25">
          <mxGeometry relative="1" as="geometry" />
        </mxCell>
        <mxCell id="EYCppehSCP_pvKJQpNDg-24" value="swapFee = 0 for single swap" style="rounded=0;whiteSpace=wrap;html=1;" vertex="1" parent="1">
          <mxGeometry x="370" y="320" width="175" height="60" as="geometry" />
        </mxCell>
        <mxCell id="EYCppehSCP_pvKJQpNDg-39" style="edgeStyle=orthogonalEdgeStyle;rounded=0;orthogonalLoop=1;jettySize=auto;html=1;exitX=1;exitY=0.5;exitDx=0;exitDy=0;" edge="1" parent="1" source="EYCppehSCP_pvKJQpNDg-25" target="EYCppehSCP_pvKJQpNDg-38">
          <mxGeometry relative="1" as="geometry" />
        </mxCell>
        <mxCell id="EYCppehSCP_pvKJQpNDg-25" value="Swap" style="rounded=1;whiteSpace=wrap;html=1;" vertex="1" parent="1">
          <mxGeometry x="500" y="475" width="130" height="70" as="geometry" />
        </mxCell>
        <mxCell id="EYCppehSCP_pvKJQpNDg-34" style="edgeStyle=orthogonalEdgeStyle;rounded=0;orthogonalLoop=1;jettySize=auto;html=1;exitX=1;exitY=0.5;exitDx=0;exitDy=0;entryX=0;entryY=0.5;entryDx=0;entryDy=0;" edge="1" parent="1" source="EYCppehSCP_pvKJQpNDg-28" target="EYCppehSCP_pvKJQpNDg-14">
          <mxGeometry relative="1" as="geometry" />
        </mxCell>
        <mxCell id="EYCppehSCP_pvKJQpNDg-28" value="beforeSwap" style="rounded=1;whiteSpace=wrap;html=1;" vertex="1" parent="1">
          <mxGeometry x="90" y="480" width="120" height="60" as="geometry" />
        </mxCell>
        <mxCell id="EYCppehSCP_pvKJQpNDg-43" style="edgeStyle=orthogonalEdgeStyle;rounded=0;orthogonalLoop=1;jettySize=auto;html=1;entryX=0;entryY=0.5;entryDx=0;entryDy=0;" edge="1" parent="1" source="EYCppehSCP_pvKJQpNDg-38" target="EYCppehSCP_pvKJQpNDg-42">
          <mxGeometry relative="1" as="geometry" />
        </mxCell>
        <mxCell id="EYCppehSCP_pvKJQpNDg-38" value="afterSwap" style="rounded=1;whiteSpace=wrap;html=1;" vertex="1" parent="1">
          <mxGeometry x="700" y="480" width="130" height="60" as="geometry" />
        </mxCell>
        <mxCell id="EYCppehSCP_pvKJQpNDg-46" style="edgeStyle=orthogonalEdgeStyle;rounded=0;orthogonalLoop=1;jettySize=auto;html=1;entryX=0;entryY=0.5;entryDx=0;entryDy=0;" edge="1" parent="1" source="EYCppehSCP_pvKJQpNDg-42" target="EYCppehSCP_pvKJQpNDg-44">
          <mxGeometry relative="1" as="geometry" />
        </mxCell>
        <mxCell id="EYCppehSCP_pvKJQpNDg-54" value="True" style="edgeLabel;html=1;align=center;verticalAlign=middle;resizable=0;points=[];" vertex="1" connectable="0" parent="EYCppehSCP_pvKJQpNDg-46">
          <mxGeometry x="-0.3931" relative="1" as="geometry">
            <mxPoint as="offset" />
          </mxGeometry>
        </mxCell>
        <mxCell id="EYCppehSCP_pvKJQpNDg-51" value="" style="edgeStyle=orthogonalEdgeStyle;rounded=0;orthogonalLoop=1;jettySize=auto;html=1;" edge="1" parent="1" source="EYCppehSCP_pvKJQpNDg-42" target="EYCppehSCP_pvKJQpNDg-50">
          <mxGeometry relative="1" as="geometry" />
        </mxCell>
        <mxCell id="EYCppehSCP_pvKJQpNDg-57" value="False" style="edgeLabel;html=1;align=center;verticalAlign=middle;resizable=0;points=[];" vertex="1" connectable="0" parent="EYCppehSCP_pvKJQpNDg-51">
          <mxGeometry relative="1" as="geometry">
            <mxPoint as="offset" />
          </mxGeometry>
        </mxCell>
        <mxCell id="EYCppehSCP_pvKJQpNDg-42" value="&lt;span style=&quot;font-size: 11px;&quot;&gt;swapFee &amp;gt; n&lt;/span&gt;" style="rhombus;whiteSpace=wrap;html=1;" vertex="1" parent="1">
          <mxGeometry x="870" y="435" width="130" height="150" as="geometry" />
        </mxCell>
        <mxCell id="EYCppehSCP_pvKJQpNDg-48" style="edgeStyle=orthogonalEdgeStyle;rounded=0;orthogonalLoop=1;jettySize=auto;html=1;" edge="1" parent="1" source="EYCppehSCP_pvKJQpNDg-44">
          <mxGeometry relative="1" as="geometry">
            <mxPoint x="1050" y="270" as="targetPoint" />
          </mxGeometry>
        </mxCell>
        <mxCell id="EYCppehSCP_pvKJQpNDg-52" style="edgeStyle=orthogonalEdgeStyle;rounded=0;orthogonalLoop=1;jettySize=auto;html=1;" edge="1" parent="1" source="EYCppehSCP_pvKJQpNDg-44" target="EYCppehSCP_pvKJQpNDg-50">
          <mxGeometry relative="1" as="geometry" />
        </mxCell>
        <mxCell id="EYCppehSCP_pvKJQpNDg-44" value="mint 1 $SP" style="whiteSpace=wrap;html=1;" vertex="1" parent="1">
          <mxGeometry x="990" y="310" width="120" height="70" as="geometry" />
        </mxCell>
        <mxCell id="EYCppehSCP_pvKJQpNDg-47" value="Swapper" style="shape=umlActor;verticalLabelPosition=bottom;verticalAlign=top;html=1;outlineConnect=0;" vertex="1" parent="1">
          <mxGeometry x="1035" y="180" width="30" height="60" as="geometry" />
        </mxCell>
        <mxCell id="EYCppehSCP_pvKJQpNDg-50" value="End Swap" style="rounded=1;whiteSpace=wrap;html=1;" vertex="1" parent="1">
          <mxGeometry x="1080" y="480" width="120" height="60" as="geometry" />
        </mxCell>
        <mxCell id="EYCppehSCP_pvKJQpNDg-58" value="Dev Wallet" style="swimlane;whiteSpace=wrap;html=1;" vertex="1" parent="1">
          <mxGeometry x="260" y="630" width="130" height="60" as="geometry">
            <mxRectangle x="295" y="620" width="100" height="30" as="alternateBounds" />
          </mxGeometry>
        </mxCell>
        <mxCell id="EYCppehSCP_pvKJQpNDg-64" value="address =&amp;gt; unit256" style="text;html=1;align=center;verticalAlign=middle;resizable=0;points=[];autosize=1;strokeColor=none;fillColor=none;" vertex="1" parent="EYCppehSCP_pvKJQpNDg-58">
          <mxGeometry y="28" width="130" height="30" as="geometry" />
        </mxCell>
      </root>
    </mxGraphModel>
  </diagram>
</mxfile>
